<svg width="547" height="596" viewBox="0 0 547 596" fill="none" xmlns="http://www.w3.org/2000/svg">
<g clip-path="url(#clip0_17106_9374)">
<path d="M842.12 496.65H0V595.52H842.12V496.65Z" fill="#805B54"/>
<path d="M842.12 0.240234H0V496.65H842.12V0.240234Z" fill="#DDC1A4"/>
<path d="M762.369 16.3506H81.9995C44.5491 16.3506 14.1895 46.7102 14.1895 84.1606V401.971C14.1895 439.421 44.5491 469.781 81.9995 469.781H762.369C799.82 469.781 830.179 439.421 830.179 401.971V84.1606C830.179 46.7102 799.82 16.3506 762.369 16.3506Z" fill="#E5C7AC"/>
<path d="M842.12 480.471H0V496.651H842.12V480.471Z" fill="#EEF2F5"/>
<path d="M174.68 82H116.33V105.15H174.68V82Z" fill="#DDC1A4"/>
<path d="M501.901 415.03H443.551V438.18H501.901V415.03Z" fill="#DDC1A4"/>
<path d="M450.241 70.4307H391.891V93.5807H450.241V70.4307Z" fill="#DDC1A4"/>
<path d="M233.03 107.42H174.68V130.57H233.03V107.42Z" fill="#D6BAA1"/>
<path d="M107.509 414.51H157.039V394.86H107.509V414.51Z" fill="#DDC1A4"/>
<path d="M57.9895 436.08H107.52V416.43H57.9895V436.08Z" fill="#D6BAA1"/>
<path d="M313.12 273.13H362.65V253.48H313.12V273.13Z" fill="#D6BAA1"/>
<path d="M284.431 296.58H333.961V276.93H284.431V296.58Z" fill="#DDC1A4"/>
<path d="M337.89 296.58H387.42V276.93H337.89V296.58Z" fill="#CCB29B"/>
<path d="M71.3394 235.391H120.869V215.741H71.3394V235.391Z" fill="#CCB29B"/>
<path d="M671.97 86.2695H169.58V450.07H671.97V86.2695Z" fill="url(#paint0_linear_17106_9374)"/>
<path opacity="0.1" d="M174.68 86.2598H169.58V450.06H174.68V86.2598Z" fill="black"/>
<path opacity="0.24" d="M280.719 82L270.78 86.26L169.58 129.61L163.689 132.14V104.38L169.58 101.86L206.01 86.26L215.949 82H280.719Z" fill="white"/>
<path opacity="0.24" d="M453.99 82L444.05 86.26L169.58 203.83L163.689 206.35V156.99L169.58 154.47L328.8 86.26L338.75 82H453.99Z" fill="white"/>
<path opacity="0.24" d="M677.859 364.97V414.33L671.969 416.86L594.459 450.06L584.509 454.32H469.279L479.229 450.06L671.969 367.5L677.859 364.97Z" fill="white"/>
<path opacity="0.24" d="M677.859 211.03V239.69L671.969 242.21L186.709 450.06L176.76 454.32H163.689V431.27L169.58 428.75L671.969 213.56L677.859 211.03Z" fill="white"/>
<path opacity="0.24" d="M677.859 252.33V267.15L671.969 269.67L250.829 450.06L240.879 454.32H206.289L216.229 450.06L671.969 254.85L677.859 252.33Z" fill="white"/>
<path opacity="0.24" d="M677.859 82V154.39L671.969 156.92L169.58 372.11L168.139 372.73L163.689 362.34V282.45L169.58 279.93L621.709 86.26L631.659 82H677.859Z" fill="white"/>
<path d="M259.929 86.2695H253.719V450.07H259.929V86.2695Z" fill="#633127"/>
<path d="M671.969 355.43V349.22L165.699 349.22V355.43L671.969 355.43Z" fill="#633127"/>
<path d="M163.689 82V454.32H677.859V82H163.689ZM671.969 450.06H169.58V86.26H671.969V450.06Z" fill="#633127"/>
<path d="M422.649 0H418.609V96.73H422.649V0Z" fill="#B7BFC9"/>
<path d="M471.43 176H369.84C369.84 145.96 387.71 120.97 411.3 115.67V105.58H415.08V96.7305H426.19V105.58H429.38V115.54C429.38 115.54 429.39 115.54 429.4 115.55C453.27 120.56 471.43 145.72 471.43 176Z" fill="#C1C7CE"/>
<path d="M471.72 176H456.04C449.53 133.49 427.29 115.12 426.57 114.52C452.21 119.62 471.72 145.2 471.72 176Z" fill="#B4BAC0"/>
<path opacity="0.2" d="M381.05 176H369.84C369.84 145.96 387.71 120.97 411.3 115.67L414.15 115.55C414.15 115.55 378.3 135.92 381.05 176Z" fill="white"/>
<path d="M542.649 0H538.609V96.73H542.649V0Z" fill="#B7BFC9"/>
<path d="M591.43 176H489.84C489.84 145.96 507.71 120.97 531.3 115.67V105.58H535.08V96.7305H546.19V105.58H549.38V115.54C549.38 115.54 549.39 115.54 549.4 115.55C573.27 120.56 591.43 145.72 591.43 176Z" fill="#C1C7CE"/>
<path d="M591.72 176H576.04C569.53 133.49 547.29 115.12 546.57 114.52C572.21 119.62 591.72 145.2 591.72 176Z" fill="#B4BAC0"/>
<path opacity="0.2" d="M501.05 176H489.84C489.84 145.96 507.71 120.97 531.3 115.67L534.15 115.55C534.15 115.55 498.3 135.92 501.05 176Z" fill="white"/>
<path d="M303.179 0H299.139V96.73H303.179V0Z" fill="#B7BFC9"/>
<path d="M351.949 176H250.359C250.359 145.96 268.23 120.97 291.82 115.67V105.58H295.6V96.7305H306.709V105.58H309.899V115.54C309.899 115.54 309.909 115.54 309.919 115.55C333.789 120.56 351.949 145.72 351.949 176Z" fill="#C1C7CE"/>
<path d="M352.25 176H336.57C330.06 133.49 307.82 115.12 307.1 114.52C332.74 119.62 352.25 145.2 352.25 176Z" fill="#B4BAC0"/>
<path opacity="0.2" d="M261.57 176H250.359C250.359 145.96 268.23 120.97 291.82 115.67L294.669 115.55C294.669 115.55 258.82 135.92 261.57 176Z" fill="white"/>
<path d="M132.27 82H32.5098V286.42H132.27V82Z" fill="#633127"/>
<path d="M128.71 86.2695H36.0703V281.92H128.71V86.2695Z" fill="#EEF2F5"/>
<path d="M66.2395 140.5C76.5341 140.5 84.8794 132.154 84.8794 121.86C84.8794 111.565 76.5341 103.22 66.2395 103.22C55.9449 103.22 47.5996 111.565 47.5996 121.86C47.5996 132.154 55.9449 140.5 66.2395 140.5Z" fill="#90B299"/>
<path d="M100.65 263.61C109.023 263.61 115.81 256.823 115.81 248.45C115.81 240.077 109.023 233.29 100.65 233.29C92.2775 233.29 85.4902 240.077 85.4902 248.45C85.4902 256.823 92.2775 263.61 100.65 263.61Z" fill="#93BC9D"/>
<path d="M58.2395 230.19C64.1158 230.19 68.8794 225.426 68.8794 219.55C68.8794 213.674 64.1158 208.91 58.2395 208.91C52.3632 208.91 47.5996 213.674 47.5996 219.55C47.5996 225.426 52.3632 230.19 58.2395 230.19Z" fill="#70A07A"/>
<path d="M81.1897 199.6C84.9231 199.6 87.9497 196.574 87.9497 192.84C87.9497 189.107 84.9231 186.08 81.1897 186.08C77.4563 186.08 74.4297 189.107 74.4297 192.84C74.4297 196.574 77.4563 199.6 81.1897 199.6Z" fill="#93B297"/>
<path d="M101.879 180.1C109.572 180.1 115.809 173.864 115.809 166.17C115.809 158.477 109.572 152.24 101.879 152.24C94.1858 152.24 87.9492 158.477 87.9492 166.17C87.9492 173.864 94.1858 180.1 101.879 180.1Z" fill="#58895F"/>
<path d="M236.353 535.764C242.839 535.764 248.105 530.497 248.105 524.011V452.534H224.609V524.011C224.609 530.497 229.876 535.764 236.362 535.764H236.353Z" fill="#F0DBC4"/>
<path d="M271.548 539.431C278.034 539.431 283.3 534.164 283.3 527.678V451.05H259.805V527.678C259.805 534.164 265.071 539.431 271.557 539.431H271.548Z" fill="#F0DBC4"/>
<path d="M249.934 482.807H221.242V438.89H249.934V482.807Z" fill="#3D6A8B"/>
<path d="M285.897 482.471H257.205V436.327H285.897V482.471Z" fill="#3D6A8B"/>
<path d="M277.582 354.159H303.419V340.887C303.419 331.317 295.652 323.559 286.091 323.559C281.399 323.559 277.591 327.367 277.591 332.06V354.159H277.582Z" fill="#171516"/>
<path d="M282.467 418.663H281.99C281.546 418.663 281.186 418.303 281.186 417.859V413.211C281.186 412.767 281.546 412.407 281.99 412.407H282.467C282.911 412.407 283.271 412.767 283.271 413.211V417.859C283.271 418.303 282.911 418.663 282.467 418.663Z" fill="#D7D8D8"/>
<path d="M286.602 418.663H286.124C285.68 418.663 285.32 418.303 285.32 417.859V413.211C285.32 412.767 285.68 412.407 286.124 412.407H286.602C287.046 412.407 287.406 412.767 287.406 413.211V417.859C287.406 418.303 287.046 418.663 286.602 418.663Z" fill="#D7D8D8"/>
<path d="M290.738 418.663H290.261C289.817 418.663 289.457 418.303 289.457 417.859V413.211C289.457 412.767 289.817 412.407 290.261 412.407H290.738C291.182 412.407 291.542 412.767 291.542 413.211V417.859C291.542 418.303 291.182 418.663 290.738 418.663Z" fill="#D7D8D8"/>
<path d="M294.873 418.663H294.396C293.952 418.663 293.592 418.303 293.592 417.859V413.211C293.592 412.767 293.952 412.407 294.396 412.407H294.873C295.317 412.407 295.677 412.767 295.677 413.211V417.859C295.677 418.303 295.317 418.663 294.873 418.663Z" fill="#D7D8D8"/>
<path d="M290.501 441.947C297.632 441.947 303.419 436.159 303.419 429.029V354.158H277.582V429.029C277.582 436.159 283.37 441.947 290.501 441.947Z" fill="#E6D2BF"/>
<path d="M277.129 320.067H228.37C217.104 320.067 207.967 329.204 207.967 340.47V413.786H297.541V340.47C297.541 329.204 288.404 320.067 277.138 320.067H277.129Z" fill="#0E0E1B"/>
<path d="M207.966 421.543C207.966 432.81 217.103 441.946 228.369 441.946H277.128C288.394 441.946 297.531 432.81 297.531 421.543V413.794H207.957V421.543H207.966Z" fill="#375F85"/>
<path d="M297.543 413.796H217.574V405.472H297.543V413.796Z" fill="#171516"/>
<path d="M200.52 354.319H226.357V327.042C226.357 325.045 224.74 323.427 222.743 323.427C210.478 323.427 200.52 333.386 200.52 345.651V354.328V354.319Z" fill="#0E0E1B"/>
<path d="M213.438 442.709C220.569 442.709 226.357 436.921 226.357 429.79V354.328H200.52V429.79C200.52 436.921 206.307 442.709 213.438 442.709Z" fill="#F0DBC4"/>
<path d="M203.535 257.021C194.699 259.945 188.328 268.269 188.328 278.086C188.328 290.342 198.26 300.274 210.516 300.274C210.737 300.274 210.949 300.266 211.17 300.257C208.979 300.981 206.628 301.379 204.189 301.379C191.933 301.379 182.001 291.447 182.001 279.191C182.001 266.935 191.589 257.365 203.535 257.021Z" fill="#FAE583"/>
<path d="M226.376 279.2C226.376 266.944 216.444 257.012 204.188 257.012C203.967 257.012 203.755 257.021 203.534 257.029C205.726 256.305 208.076 255.907 210.515 255.907C222.771 255.907 232.703 265.839 232.703 278.095C232.703 290.351 223.116 299.921 211.169 300.266C220.005 297.341 226.376 289.017 226.376 279.2Z" fill="#C34843"/>
<path d="M188.326 278.087C188.326 268.27 194.706 259.946 203.533 257.022C203.754 257.022 203.966 257.004 204.187 257.004C216.443 257.004 226.375 266.936 226.375 279.192C226.375 289.009 219.995 297.333 211.168 300.258C210.947 300.258 210.735 300.275 210.514 300.275C198.258 300.275 188.326 290.343 188.326 278.087Z" fill="#F1D97F"/>
<path d="M203.531 284.661C194.695 287.586 188.324 295.91 188.324 305.727C188.324 317.983 198.256 327.915 210.512 327.915C210.733 327.915 210.945 327.906 211.166 327.897C208.975 328.622 206.624 329.02 204.185 329.02C191.929 329.02 181.997 319.087 181.997 306.831C181.997 294.575 191.585 285.006 203.531 284.661Z" fill="#FAE583"/>
<path d="M188.326 305.717C188.326 295.9 194.706 287.576 203.533 284.651C203.754 284.651 203.966 284.634 204.187 284.634C216.443 284.634 226.375 294.566 226.375 306.822C226.375 316.639 219.995 324.963 211.168 327.888C210.947 327.888 210.735 327.905 210.514 327.905C198.258 327.905 188.326 317.973 188.326 305.717Z" fill="#F1D97F"/>
<path d="M251.771 316.72C220.347 316.72 194.874 291.246 194.874 259.823C194.874 228.399 220.347 202.926 251.771 202.926C283.194 202.926 308.668 228.399 308.668 259.823C308.668 291.246 283.194 316.72 251.771 316.72Z" fill="#F1D97F"/>
<path d="M256.588 327.817C249.103 327.817 243.033 321.747 243.033 314.262C243.033 312.115 243.545 310.092 244.429 308.289C240.223 311.108 237.457 315.906 237.457 321.34C237.457 330.018 244.491 337.051 253.168 337.051C261.845 337.051 268.879 330.018 268.879 321.34C268.879 320.916 268.852 320.501 268.817 320.077C266.634 324.645 261.987 327.817 256.588 327.817Z" fill="#F0DBC4"/>
<path d="M256.589 327.819C261.988 327.819 266.636 324.656 268.818 320.078C268.173 311.993 261.422 305.622 253.169 305.622C249.935 305.622 246.922 306.603 244.43 308.282C243.546 310.084 243.034 312.108 243.034 314.255C243.034 321.74 249.105 327.81 256.589 327.81V327.819Z" fill="#E6D2BF"/>
<path d="M254.236 307.485C231.818 307.485 212.652 293.603 204.832 273.978C203.798 274.216 202.729 274.358 201.633 274.358C201.51 274.358 201.395 274.34 201.271 274.34C203.586 301.565 226.402 322.949 254.236 322.949C283.599 322.949 307.404 299.144 307.404 269.781C307.404 267.156 307.21 264.576 306.839 262.049C303.092 287.745 280.975 307.485 254.236 307.485Z" fill="#F0DBC4"/>
<path d="M204.833 273.978C203.331 270.196 202.235 266.202 201.634 262.049C201.263 264.576 201.069 267.156 201.069 269.781C201.069 271.318 201.148 272.838 201.281 274.34C201.404 274.34 201.519 274.358 201.643 274.358C202.748 274.358 203.817 274.216 204.842 273.978H204.833Z" fill="#914C34"/>
<path d="M203.729 275.808C199.088 275.808 195.326 272.045 195.326 267.404C195.326 262.763 199.088 259.001 203.729 259.001C208.37 259.001 212.133 262.763 212.133 267.404C212.133 272.045 208.37 275.808 203.729 275.808Z" fill="#F2DEC3"/>
<path d="M203.88 272.742C200.932 272.742 198.542 270.352 198.542 267.405C198.542 264.457 200.932 262.067 203.88 262.067C206.827 262.067 209.217 264.457 209.217 267.405C209.217 270.352 206.827 272.742 203.88 272.742Z" fill="#E8CAA8"/>
<path d="M237.262 251.774C237.262 251.146 237.226 250.528 237.182 249.909C241.264 252.427 246.071 253.885 251.223 253.885C259.909 253.885 267.632 249.75 272.527 243.344C276.831 250.581 284.722 255.423 293.752 255.423C297.658 255.423 301.36 254.513 304.639 252.896C304.656 252.949 304.674 253.002 304.692 253.046C305.655 255.944 306.379 258.949 306.83 262.041C303.083 287.737 280.966 307.478 254.227 307.478C232.357 307.478 213.589 294.268 205.433 275.402C207.695 276.082 210.09 276.453 212.573 276.453C226.207 276.453 237.262 265.399 237.262 251.765V251.774Z" fill="#F2DEC3"/>
<path d="M224.617 230.222C223.389 229.533 222.108 228.95 220.765 228.481C221.957 227.518 223.186 226.599 224.467 225.733C224.44 226.184 224.432 226.626 224.432 227.085C224.432 228.146 224.502 229.188 224.617 230.222Z" fill="#F2DEC3"/>
<path d="M272.536 243.343C275.982 238.836 278.032 233.199 278.032 227.084C278.032 225.343 277.864 223.638 277.546 221.994C290.253 228.206 300.114 239.331 304.656 252.895C301.369 254.512 297.676 255.422 293.77 255.422C284.739 255.422 276.848 250.571 272.545 243.343H272.536Z" fill="#E8CAA8"/>
<path d="M254.237 216.614C243.2 216.614 232.959 219.98 224.467 225.742C225.174 211.568 236.882 200.293 251.232 200.293C261.562 200.293 270.531 206.143 275.002 214.714C273.73 216.198 272.643 217.833 271.75 219.583C266.272 217.674 260.378 216.623 254.245 216.623L254.237 216.614Z" fill="#F0DBC4"/>
<path d="M271.74 219.574C270.034 222.932 269.071 226.723 269.071 230.744C269.071 235.347 270.335 239.659 272.535 243.344C267.64 249.751 259.917 253.886 251.231 253.886C246.079 253.886 241.272 252.428 237.19 249.91C236.554 241.436 231.649 234.154 224.616 230.222C224.492 229.188 224.43 228.146 224.43 227.085C224.43 226.635 224.439 226.184 224.465 225.733C232.957 219.981 243.207 216.605 254.235 216.605C260.368 216.605 266.261 217.657 271.74 219.566V219.574Z" fill="#E8CAA8"/>
<path d="M271.74 219.574C272.633 217.815 273.729 216.181 274.992 214.705C276.176 216.967 277.042 219.415 277.537 221.995C275.664 221.076 273.729 220.272 271.74 219.574Z" fill="#F0DBC4"/>
<path d="M271.741 219.574C273.729 220.272 275.664 221.076 277.537 221.995C277.856 223.648 278.023 225.344 278.023 227.085C278.023 233.2 275.973 238.837 272.527 243.344C270.327 239.65 269.063 235.347 269.063 230.743C269.063 226.723 270.027 222.932 271.732 219.574H271.741Z" fill="#F0DBC4"/>
<path d="M201.633 262.051C203.603 248.549 210.646 236.699 220.763 228.481C222.106 228.95 223.396 229.533 224.616 230.222C225.588 238.555 230.377 245.712 237.19 249.91C237.234 250.528 237.27 251.147 237.27 251.774C237.27 265.408 226.215 276.463 212.581 276.463C210.098 276.463 207.703 276.092 205.441 275.411C205.238 274.934 205.035 274.457 204.84 273.98C203.338 270.198 202.242 266.204 201.641 262.051H201.633Z" fill="#E8CAA8"/>
<path d="M237.189 249.918C230.377 245.721 225.587 238.554 224.615 230.23C231.649 234.171 236.553 241.453 237.189 249.918Z" fill="#F0DBC4"/>
<path d="M259.169 259.063C258.417 259.063 254.317 259.063 250.226 259.063C246.135 259.063 242.017 259.063 241.284 259.063C241.063 259.063 239.879 259.037 238.924 258.082C238.315 257.473 237.944 256.642 237.944 255.723C237.944 253.885 239.446 252.374 241.293 252.374H259.186C261.024 252.374 262.535 253.876 262.535 255.723C262.535 257.561 261.033 259.072 259.186 259.072L259.169 259.063Z" fill="#E8CAA8"/>
<path d="M296.724 259.063C293.693 259.063 281.773 259.063 278.831 259.063C278.61 259.063 277.426 259.037 276.471 258.082C275.862 257.473 275.491 256.642 275.491 255.723C275.491 253.885 276.993 252.374 278.839 252.374H296.733C298.571 252.374 300.082 253.876 300.082 255.723C300.082 257.561 298.58 259.072 296.733 259.072L296.724 259.063Z" fill="#E8CAA8"/>
<path d="M259.169 255.899C258.417 255.899 254.317 255.899 250.226 255.899C246.117 255.899 242.017 255.899 241.284 255.899C241.063 255.899 239.879 255.873 238.924 254.918C238.315 254.309 237.944 253.478 237.944 252.559C237.944 250.721 239.446 249.21 241.293 249.21H259.186C261.024 249.21 262.535 250.712 262.535 252.559C262.535 254.397 261.033 255.908 259.186 255.908L259.169 255.899Z" fill="#FAE583"/>
<path d="M296.724 255.899C293.693 255.899 281.773 255.899 278.831 255.899C278.61 255.899 277.426 255.873 276.471 254.918C275.862 254.309 275.491 253.478 275.491 252.559C275.491 250.721 276.993 249.21 278.839 249.21H296.733C298.571 249.21 300.082 250.712 300.082 252.559C300.082 254.397 298.58 255.908 296.733 255.908L296.724 255.899Z" fill="#FAE583"/>
<path d="M273.402 285.139C273.402 286.8 271.326 286.694 268.754 286.694C266.183 286.694 264.107 286.8 264.107 285.139C264.107 283.478 266.183 282.135 268.754 282.135C271.326 282.135 273.402 283.478 273.402 285.139Z" fill="#E8CAA8"/>
<path d="M283.894 297.544H252.189C250.749 297.544 249.6 298.816 249.812 300.239C250.086 302.103 250.651 303.871 251.438 305.505H272.61C276.259 305.505 279.316 308.024 280.156 311.417C283.381 308.598 285.617 304.675 286.262 300.239C286.474 298.816 285.325 297.544 283.885 297.544H283.894Z" fill="#773340"/>
<path d="M272.611 305.506H251.439C254.408 311.691 260.717 315.968 268.043 315.968C272.682 315.968 276.923 314.254 280.166 311.417C279.327 308.024 276.269 305.506 272.62 305.506H272.611Z" fill="#BF5163"/>
<path d="M256.501 301.37H280.43C281.87 301.37 283.037 300.204 283.037 298.763V298.383C283.037 297.915 282.657 297.544 282.197 297.544H254.734C254.266 297.544 253.895 297.924 253.895 298.383V298.763C253.895 300.204 255.061 301.37 256.501 301.37Z" fill="#EFF2F5"/>
<path d="M292.534 271.54C292.534 274.199 290.378 276.355 287.718 276.355C285.058 276.355 282.902 274.199 282.902 271.54V265.478C282.902 262.818 285.058 260.662 287.718 260.662C290.378 260.662 292.534 262.818 292.534 265.478V271.54Z" fill="#0E0E1B"/>
<path d="M255.042 271.54C255.042 274.199 252.886 276.355 250.226 276.355C247.566 276.355 245.41 274.199 245.41 271.54V265.478C245.41 262.818 247.566 260.662 250.226 260.662C252.886 260.662 255.042 262.818 255.042 265.478V271.54Z" fill="#0E0E1B"/>
<path d="M256.766 538.945H220.67V535.526H256.766V538.945Z" fill="#D7D8D8"/>
<path d="M231.155 531.1H241.891V520.814C241.891 517.854 239.488 515.442 236.519 515.442C233.559 515.442 231.146 517.845 231.146 520.814V531.1H231.155Z" fill="#0E0E1B"/>
<path d="M233.161 523.271C226.259 523.271 220.657 528.864 220.657 535.774H245.664C245.664 528.873 240.071 523.271 233.161 523.271Z" fill="#171516"/>
<path d="M244.311 521.962C243.833 521.909 243.347 521.883 242.861 521.883C235.191 521.883 228.971 528.104 228.971 535.774H234.219C234.219 528.59 238.638 522.687 244.311 521.962Z" fill="#161411"/>
<path d="M244.31 521.962C251.3 522.686 256.752 528.598 256.752 535.773L244.31 521.962Z" fill="#E2E2E1"/>
<path d="M244.31 521.962C238.637 522.686 234.219 528.598 234.219 535.773H256.752C256.752 528.589 251.3 522.686 244.31 521.962Z" fill="#E8E8E8"/>
<path d="M292.542 538.945H256.445V535.526H292.542V538.945Z" fill="#D7D8D8"/>
<path d="M266.95 531.1H277.686V520.814C277.686 517.854 275.283 515.442 272.314 515.442C269.354 515.442 266.941 517.845 266.941 520.814V531.1H266.95Z" fill="#0E0E1B"/>
<path d="M268.956 523.271C262.054 523.271 256.452 528.864 256.452 535.774H281.459C281.459 528.873 275.866 523.271 268.956 523.271Z" fill="#171516"/>
<path d="M280.107 521.962C279.63 521.909 279.144 521.883 278.658 521.883C270.988 521.883 264.768 528.104 264.768 535.774H270.016C270.016 528.59 274.434 522.687 280.107 521.962Z" fill="#161411"/>
<path d="M280.107 521.962C287.097 522.686 292.549 528.598 292.549 535.773L280.107 521.962Z" fill="#E2E2E1"/>
<path d="M280.107 521.962C274.434 522.686 270.016 528.598 270.016 535.773H292.549C292.549 528.589 287.097 522.686 280.107 521.962Z" fill="#E8E8E8"/>
<path opacity="0.15" d="M287.648 360.036H257.587C256.01 360.036 254.732 358.758 254.732 357.182C254.732 355.606 256.01 354.328 257.587 354.328H287.648C289.224 354.328 290.502 355.606 290.502 357.182C290.502 358.758 289.224 360.036 287.648 360.036Z" fill="white"/>
<path opacity="0.1" d="M285.06 433.951H254.999C253.422 433.951 252.145 432.673 252.145 431.097C252.145 429.521 253.422 428.243 254.999 428.243H285.06C286.636 428.243 287.914 429.521 287.914 431.097C287.914 432.673 286.636 433.951 285.06 433.951Z" fill="#DDDDDD"/>
<path opacity="0.15" d="M272.359 392.385H246.141C244.565 392.385 243.287 391.107 243.287 389.531C243.287 387.954 244.565 386.676 246.141 386.676H272.359C273.935 386.676 275.213 387.954 275.213 389.531C275.213 391.107 273.935 392.385 272.359 392.385Z" fill="white"/>
<path opacity="0.1" d="M276.521 475.111V456.873C276.521 455.296 277.799 454.019 279.376 454.019C280.952 454.019 282.23 455.296 282.23 456.873V475.111C282.23 476.687 280.952 477.965 279.376 477.965C277.799 477.965 276.521 476.687 276.521 475.111Z" fill="#DDDDDD"/>
<path d="M293.311 250.465C279.676 250.465 268.623 239.412 268.623 225.777C268.623 212.141 279.676 201.088 293.311 201.088C306.946 201.088 318 212.141 318 225.777C318 239.412 306.946 250.465 293.311 250.465Z" fill="#FAE583"/>
<path d="M250.783 248.919C235.982 248.919 223.983 236.92 223.983 222.118C223.983 207.316 235.982 195.317 250.783 195.317C265.585 195.317 277.584 207.316 277.584 222.118C277.584 236.92 265.585 248.919 250.783 248.919Z" fill="#FAE583"/>
<path d="M212.122 271.496C198.487 271.496 187.433 260.442 187.433 246.807C187.433 233.172 198.487 222.118 212.122 222.118C225.757 222.118 236.811 233.172 236.811 246.807C236.811 260.442 225.757 271.496 212.122 271.496Z" fill="#FAE583"/>
<path d="M198.878 277.61C197.355 277.61 196.121 276.375 196.121 274.853C196.121 273.33 197.355 272.096 198.878 272.096C200.4 272.096 201.635 273.33 201.635 274.853C201.635 276.375 200.4 277.61 198.878 277.61Z" fill="#EFF2F5"/>
<path opacity="0.1" d="M299.955 228.931C295.841 228.931 292.506 225.596 292.506 221.482C292.506 217.368 295.841 214.033 299.955 214.033C304.069 214.033 307.404 217.368 307.404 221.482C307.404 225.596 304.069 228.931 299.955 228.931Z" fill="white"/>
<path opacity="0.1" d="M288.123 238.377C286.03 238.377 284.332 236.68 284.332 234.587C284.332 232.493 286.03 230.796 288.123 230.796C290.217 230.796 291.914 232.493 291.914 234.587C291.914 236.68 290.217 238.377 288.123 238.377Z" fill="white"/>
<path opacity="0.1" d="M251.233 221.614C246.338 221.614 242.37 217.646 242.37 212.752C242.37 207.857 246.338 203.889 251.233 203.889C256.128 203.889 260.096 207.857 260.096 212.752C260.096 217.646 256.128 221.614 251.233 221.614Z" fill="white"/>
<path opacity="0.1" d="M239.939 234.418C237.787 234.418 236.042 232.673 236.042 230.521C236.042 228.369 237.787 226.624 239.939 226.624C242.091 226.624 243.836 228.369 243.836 230.521C243.836 232.673 242.091 234.418 239.939 234.418Z" fill="white"/>
<path opacity="0.1" d="M217.602 244.836C213.312 244.836 209.835 241.359 209.835 237.069C209.835 232.779 213.312 229.302 217.602 229.302C221.892 229.302 225.369 232.779 225.369 237.069C225.369 241.359 221.892 244.836 217.602 244.836Z" fill="white"/>
<path opacity="0.1" d="M208.341 249.802C207.072 249.802 206.044 248.773 206.044 247.504C206.044 246.236 207.072 245.207 208.341 245.207C209.61 245.207 210.639 246.236 210.639 247.504C210.639 248.773 209.61 249.802 208.341 249.802Z" fill="white"/>
<g clip-path="url(#clip1_17106_9374)">
<path d="M555 410.104H260V428.393H555V410.104Z" fill="#774F36"/>
<path d="M497.442 542.836H317.564V549.706H497.442V542.836Z" fill="#774F36"/>
<path d="M374.941 428.393H440.059C440.059 436.223 433.703 442.58 425.872 442.58H389.128C381.298 442.58 374.941 436.223 374.941 428.393Z" fill="#6B4733"/>
<path d="M407.502 450.25C400.396 450.25 394.629 446.656 394.629 442.228H420.371C420.371 446.656 414.609 450.25 407.497 450.25H407.502Z" fill="#6B4733"/>
<path d="M413.113 441.941H401.891V542.836H413.113V441.941Z" fill="#6B4733"/>
<path d="M374.11 402.671C386.754 402.671 397.004 392.421 397.004 379.777C397.004 367.134 386.754 356.884 374.11 356.884C361.467 356.884 351.217 367.134 351.217 379.777C351.217 392.421 361.467 402.671 374.11 402.671Z" fill="#FED39D"/>
<path opacity="0.1" d="M373.721 368.366C381.817 367.162 388.142 364.584 387.848 362.607C387.554 360.63 380.752 360.004 372.656 361.208C364.56 362.412 358.234 364.991 358.528 366.968C358.822 368.944 365.624 369.571 373.721 368.366Z" fill="black"/>
<path d="M364.005 410.104H357.271L348.263 382.923C347.17 379.631 349.621 376.234 353.094 376.234C355.52 376.234 357.613 377.951 358.086 380.331L364.005 410.104Z" fill="#C3DB7B"/>
<path d="M370.743 410.104H364.01L358.484 382.314C357.86 379.168 360.265 376.234 363.476 376.234H363.738C366.42 376.234 368.64 378.313 368.816 380.985L370.743 410.104Z" fill="#93C73E"/>
<path d="M377.478 410.104H370.745L368.857 381.66C368.661 378.721 370.991 376.234 373.935 376.234H374.282C377.227 376.234 379.557 378.726 379.36 381.66L377.473 410.104H377.478Z" fill="#C3DB7B"/>
<path d="M390.945 410.104H384.211L390.129 380.331C390.602 377.951 392.691 376.234 395.122 376.234C398.589 376.234 401.045 379.631 399.953 382.923L390.945 410.104Z" fill="#C3DB7B"/>
<path d="M384.21 410.104H377.477L379.404 380.985C379.58 378.313 381.8 376.234 384.482 376.234H384.744C387.955 376.234 390.36 379.168 389.736 382.314L384.21 410.104Z" fill="#93C73E"/>
<path d="M391.519 357.442C391.519 360.16 389.496 362.545 386.738 362.912L357.941 366.778C354.977 367.175 352.224 365.107 351.766 362.163C351.756 362.122 351.751 362.082 351.746 362.042C351.71 361.795 351.695 361.554 351.695 361.312C351.695 358.599 353.718 356.214 356.476 355.847L385.268 351.982C388.273 351.579 391.066 353.708 391.469 356.712C391.484 356.803 391.494 356.893 391.499 356.984C391.514 357.14 391.519 357.291 391.519 357.442Z" fill="#DFE0D5"/>
<path d="M386.522 347.01C386.522 347.583 386.431 348.137 386.26 348.665C385.636 350.633 383.915 352.173 381.741 352.465L364.629 354.765C362.174 355.092 359.864 353.733 358.877 351.589C358.656 351.106 358.505 350.588 358.429 350.034C358.394 349.788 358.379 349.546 358.379 349.305C358.379 346.587 360.402 344.201 363.16 343.834L380.276 341.539C383.281 341.132 386.069 343.265 386.471 346.27C386.506 346.517 386.522 346.763 386.522 347.01Z" fill="#DFE0D5"/>
<path d="M381.902 337.488C381.902 337.729 381.887 337.966 381.856 338.202C381.534 340.613 379.632 342.621 377.121 342.958L369.904 343.925C367.569 344.237 365.364 343.024 364.312 341.056C364.005 340.492 363.799 339.863 363.709 339.194C363.673 338.947 363.658 338.701 363.658 338.454C363.658 335.747 365.681 333.361 368.439 332.994L375.651 332.027C378.661 331.625 381.449 333.754 381.851 336.758C381.887 337.005 381.902 337.246 381.902 337.488Z" fill="#DFE0D5"/>
<path d="M391.499 356.984C386.934 358.927 380.029 360.693 372.198 361.745C364.066 362.837 356.693 362.918 351.766 362.163C351.756 362.122 351.751 362.082 351.746 362.042C351.71 361.795 351.695 361.554 351.695 361.312C351.695 358.599 353.718 356.214 356.476 355.847L385.268 351.982C388.273 351.579 391.066 353.708 391.469 356.712C391.484 356.803 391.494 356.893 391.499 356.984Z" fill="#EEEFE8"/>
<path d="M386.522 347.01C386.522 347.583 386.431 348.137 386.26 348.665C382.712 349.878 378.142 350.88 373.105 351.454C367.709 352.063 362.722 352.073 358.877 351.589C358.656 351.106 358.505 350.588 358.429 350.034C358.394 349.788 358.379 349.546 358.379 349.305C358.379 346.587 360.402 344.201 363.16 343.834L380.276 341.539C383.281 341.132 386.069 343.265 386.471 346.27C386.506 346.517 386.522 346.763 386.522 347.01Z" fill="#EEEFE8"/>
<path d="M381.902 337.488C381.902 337.729 381.887 337.966 381.856 338.202C379.556 339.249 376.507 340.14 373.105 340.679C369.833 341.197 366.768 341.298 364.312 341.056C364.005 340.492 363.799 339.863 363.709 339.194C363.673 338.947 363.658 338.701 363.658 338.454C363.658 335.747 365.681 333.361 368.439 332.994L375.651 332.027C378.661 331.625 381.449 333.754 381.851 336.758C381.887 337.005 381.902 337.246 381.902 337.488Z" fill="#EEEFE8"/>
<path d="M362.009 347.306L362.004 347.305C361.706 347.268 361.435 347.479 361.397 347.777L361.2 349.35C361.162 349.647 361.373 349.919 361.671 349.957L361.676 349.957C361.974 349.995 362.246 349.783 362.283 349.486L362.481 347.913C362.518 347.615 362.307 347.343 362.009 347.306Z" fill="#FACC44"/>
<path d="M372.759 346.068L372.754 346.066C372.477 345.952 372.159 346.083 372.044 346.361L371.437 347.825C371.322 348.102 371.454 348.42 371.731 348.535L371.736 348.537C372.013 348.652 372.331 348.52 372.446 348.243L373.053 346.779C373.168 346.501 373.036 346.183 372.759 346.068Z" fill="#FACC44"/>
<path d="M375.062 334.813L375.058 334.816C374.819 334.997 374.772 335.338 374.953 335.578L375.911 336.841C376.093 337.08 376.434 337.127 376.673 336.945L376.677 336.942C376.916 336.761 376.963 336.42 376.782 336.181L375.824 334.918C375.642 334.678 375.301 334.632 375.062 334.813Z" fill="#FACC44"/>
<path d="M370.061 336.871L370.057 336.868C369.809 336.699 369.471 336.764 369.302 337.012L368.412 338.324C368.243 338.572 368.308 338.91 368.556 339.079L368.56 339.082C368.809 339.25 369.147 339.186 369.315 338.937L370.206 337.626C370.374 337.377 370.31 337.039 370.061 336.871Z" fill="#FACC44"/>
<path d="M380.62 347.158L380.615 347.156C380.338 347.041 380.02 347.173 379.905 347.45L379.298 348.915C379.183 349.192 379.315 349.51 379.592 349.625L379.597 349.627C379.874 349.742 380.192 349.61 380.307 349.333L380.914 347.868C381.029 347.591 380.897 347.273 380.62 347.158Z" fill="#FACC44"/>
<path d="M360.731 358.685L360.727 358.683C360.449 358.568 360.131 358.699 360.017 358.977L359.41 360.441C359.295 360.719 359.426 361.037 359.704 361.151L359.708 361.153C359.986 361.268 360.304 361.137 360.418 360.859L361.025 359.395C361.14 359.118 361.009 358.8 360.731 358.685Z" fill="#FACC44"/>
<path d="M385.833 355.366L385.828 355.368C385.554 355.49 385.431 355.812 385.554 356.086L386.201 357.533C386.324 357.807 386.645 357.93 386.919 357.807L386.924 357.805C387.198 357.683 387.321 357.361 387.198 357.087L386.551 355.64C386.428 355.366 386.107 355.243 385.833 355.366Z" fill="#FACC44"/>
<path d="M366.077 362.031L366.073 362.033C365.825 362.202 365.759 362.539 365.928 362.788L366.816 364.101C366.984 364.35 367.322 364.415 367.571 364.247L367.575 364.244C367.823 364.076 367.889 363.738 367.72 363.489L366.832 362.176C366.664 361.927 366.326 361.862 366.077 362.031Z" fill="#FACC44"/>
<path d="M374.482 358.251L374.478 358.249C374.224 358.089 373.888 358.166 373.729 358.42L372.887 359.764C372.728 360.018 372.804 360.354 373.059 360.513L373.063 360.516C373.317 360.675 373.653 360.598 373.812 360.344L374.654 359.001C374.814 358.746 374.737 358.411 374.482 358.251Z" fill="#FACC44"/>
<path d="M382.12 360.362L382.116 360.365C381.885 360.557 381.853 360.899 382.044 361.13L383.056 362.351C383.248 362.582 383.591 362.614 383.822 362.422L383.825 362.419C384.057 362.227 384.088 361.884 383.897 361.653L382.885 360.433C382.693 360.202 382.351 360.17 382.12 360.362Z" fill="#FACC44"/>
<path opacity="0.1" d="M359.561 373.169C360.486 373.169 361.237 372.419 361.237 371.493C361.237 370.568 360.486 369.817 359.561 369.817C358.635 369.817 357.885 370.568 357.885 371.493C357.885 372.419 358.635 373.169 359.561 373.169Z" fill="black"/>
<path opacity="0.1" d="M362.122 375.027C362.742 375.027 363.245 374.524 363.245 373.905C363.245 373.285 362.742 372.782 362.122 372.782C361.502 372.782 361 373.285 361 373.905C361 374.524 361.502 375.027 362.122 375.027Z" fill="black"/>
<path opacity="0.1" d="M385.887 372.842C386.812 372.842 387.563 372.092 387.563 371.166C387.563 370.241 386.812 369.49 385.887 369.49C384.961 369.49 384.211 370.241 384.211 371.166C384.211 372.092 384.961 372.842 385.887 372.842Z" fill="black"/>
<path opacity="0.1" d="M389.007 374.483C389.627 374.483 390.129 373.98 390.129 373.361C390.129 372.741 389.627 372.238 389.007 372.238C388.387 372.238 387.885 372.741 387.885 373.361C387.885 373.98 388.387 374.483 389.007 374.483Z" fill="black"/>
<path opacity="0.1" d="M383.295 373.894C383.59 373.894 383.829 373.655 383.829 373.361C383.829 373.066 383.59 372.827 383.295 372.827C383.001 372.827 382.762 373.066 382.762 373.361C382.762 373.655 383.001 373.894 383.295 373.894Z" fill="black"/>
<path d="M439.405 403.084C452.049 403.084 462.299 392.834 462.299 380.19C462.299 367.547 452.049 357.297 439.405 357.297C426.762 357.297 416.512 367.547 416.512 380.19C416.512 392.834 426.762 403.084 439.405 403.084Z" fill="#FCB95D"/>
<path opacity="0.1" d="M435.326 367.685C443.423 366.481 449.748 363.902 449.454 361.925C449.16 359.948 442.358 359.322 434.262 360.527C426.165 361.731 419.84 364.309 420.134 366.286C420.428 368.263 427.23 368.889 435.326 367.685Z" fill="black"/>
<path opacity="0.1" d="M424.856 373.169C425.781 373.169 426.531 372.419 426.531 371.493C426.531 370.568 425.781 369.817 424.856 369.817C423.93 369.817 423.18 370.568 423.18 371.493C423.18 372.419 423.93 373.169 424.856 373.169Z" fill="black"/>
<path opacity="0.1" d="M427.417 375.027C428.037 375.027 428.54 374.524 428.54 373.905C428.54 373.285 428.037 372.782 427.417 372.782C426.797 372.782 426.295 373.285 426.295 373.905C426.295 374.524 426.797 375.027 427.417 375.027Z" fill="black"/>
<path opacity="0.1" d="M451.182 372.842C452.107 372.842 452.858 372.092 452.858 371.166C452.858 370.241 452.107 369.49 451.182 369.49C450.256 369.49 449.506 370.241 449.506 371.166C449.506 372.092 450.256 372.842 451.182 372.842Z" fill="black"/>
<path opacity="0.1" d="M454.302 374.483C454.922 374.483 455.424 373.98 455.424 373.361C455.424 372.741 454.922 372.238 454.302 372.238C453.682 372.238 453.18 372.741 453.18 373.361C453.18 373.98 453.682 374.483 454.302 374.483Z" fill="black"/>
<path opacity="0.1" d="M448.59 373.894C448.885 373.894 449.124 373.655 449.124 373.361C449.124 373.066 448.885 372.827 448.59 372.827C448.295 372.827 448.057 373.066 448.057 373.361C448.057 373.655 448.295 373.894 448.59 373.894Z" fill="black"/>
<path d="M429.958 410.104H423.224L414.216 382.923C413.124 379.631 415.575 376.234 419.047 376.234C421.473 376.234 423.566 377.951 424.039 380.331L429.958 410.104Z" fill="#F0543E"/>
<path d="M436.693 410.104H429.959L424.433 382.314C423.809 379.168 426.215 376.234 429.425 376.234H429.687C432.369 376.234 434.589 378.313 434.765 380.985L436.693 410.104Z" fill="#B9702B"/>
<path d="M443.425 410.104H436.692L434.805 381.66C434.608 378.721 436.938 376.234 439.882 376.234H440.23C443.174 376.234 445.504 378.726 445.308 381.66L443.42 410.104H443.425Z" fill="#F0543E"/>
<path d="M456.898 410.104H450.164L456.082 380.331C456.556 377.951 458.644 376.234 461.075 376.234C464.542 376.234 466.998 379.631 465.906 382.923L456.898 410.104Z" fill="#F0543E"/>
<path d="M450.165 410.104H443.432L445.359 380.985C445.535 378.313 447.755 376.234 450.437 376.234H450.699C453.91 376.234 456.315 379.168 455.691 382.314L450.165 410.104Z" fill="#B9702B"/>
<path d="M457.628 357.442C457.628 360.16 455.605 362.545 452.847 362.912L424.05 366.778C421.086 367.175 418.333 365.107 417.875 362.163C417.865 362.122 417.86 362.082 417.855 362.042C417.82 361.795 417.805 361.554 417.805 361.312C417.805 358.599 419.828 356.214 422.586 355.847L451.378 351.982C454.382 351.579 457.175 353.708 457.578 356.712C457.593 356.803 457.603 356.893 457.608 356.984C457.623 357.14 457.628 357.291 457.628 357.442Z" fill="#60402A"/>
<path d="M452.631 347.01C452.631 347.583 452.54 348.137 452.369 348.665C451.745 350.633 450.024 352.173 447.85 352.465L430.739 354.765C428.283 355.092 425.973 353.733 424.987 351.589C424.765 351.106 424.614 350.588 424.539 350.034C424.503 349.788 424.488 349.546 424.488 349.305C424.488 346.587 426.511 344.201 429.269 343.834L446.385 341.539C449.39 341.132 452.178 343.265 452.581 346.27C452.616 346.517 452.631 346.763 452.631 347.01Z" fill="#60402A"/>
<path d="M448.011 337.488C448.011 337.729 447.996 337.966 447.966 338.202C447.644 340.613 445.741 342.621 443.23 342.958L436.013 343.925C433.678 344.237 431.474 343.024 430.422 341.056C430.115 340.492 429.908 339.863 429.818 339.194C429.783 338.947 429.768 338.701 429.768 338.454C429.768 335.747 431.791 333.361 434.549 332.994L441.76 332.027C444.77 331.625 447.558 333.754 447.961 336.758C447.996 337.005 448.011 337.246 448.011 337.488Z" fill="#60402A"/>
<path d="M457.608 356.984C453.043 358.927 446.139 360.693 438.308 361.745C430.175 362.837 422.802 362.918 417.875 362.163C417.865 362.122 417.86 362.082 417.855 362.042C417.82 361.795 417.805 361.554 417.805 361.312C417.805 358.599 419.828 356.214 422.586 355.847L451.378 351.982C454.382 351.579 457.175 353.708 457.578 356.712C457.593 356.803 457.603 356.893 457.608 356.984Z" fill="#774F30"/>
<path d="M452.631 347.01C452.631 347.583 452.54 348.137 452.369 348.665C448.821 349.878 444.252 350.88 439.214 351.454C433.819 352.063 428.831 352.073 424.987 351.589C424.765 351.106 424.614 350.588 424.539 350.034C424.503 349.788 424.488 349.546 424.488 349.305C424.488 346.587 426.511 344.201 429.269 343.834L446.385 341.539C449.39 341.132 452.178 343.265 452.581 346.27C452.616 346.517 452.631 346.763 452.631 347.01Z" fill="#774F30"/>
<path d="M448.011 337.488C448.011 337.729 447.996 337.966 447.966 338.202C445.666 339.249 442.616 340.14 439.214 340.679C435.943 341.197 432.878 341.298 430.422 341.056C430.115 340.492 429.908 339.863 429.818 339.194C429.783 338.947 429.768 338.701 429.768 338.454C429.768 335.747 431.791 333.361 434.549 332.994L441.76 332.027C444.77 331.625 447.558 333.754 447.961 336.758C447.996 337.005 448.011 337.246 448.011 337.488Z" fill="#774F30"/>
<path d="M438.56 336.033C440.072 336.033 441.298 335.571 441.298 335.001C441.298 334.432 440.072 333.97 438.56 333.97C437.048 333.97 435.822 334.432 435.822 335.001C435.822 335.571 437.048 336.033 438.56 336.033Z" fill="#60402A"/>
<path d="M438.56 335.425C440.886 335.425 442.772 333.539 442.772 331.212C442.772 328.886 440.886 327 438.56 327C436.234 327 434.348 328.886 434.348 331.212C434.348 333.539 436.234 335.425 438.56 335.425Z" fill="#EE555E"/>
<path opacity="0.1" d="M438.904 329.711C440.108 329.499 441.012 328.915 440.922 328.405C440.833 327.896 439.784 327.655 438.579 327.867C437.375 328.079 436.471 328.664 436.561 329.173C436.65 329.682 437.699 329.923 438.904 329.711Z" fill="white"/>
</g>
</g>
<defs>
<linearGradient id="paint0_linear_17106_9374" x1="420.78" y1="86.2695" x2="420.78" y2="450.07" gradientUnits="userSpaceOnUse">
<stop stop-color="#ABDAF6"/>
<stop offset="0.57" stop-color="#93C5E2"/>
</linearGradient>
<clipPath id="clip0_17106_9374">
<rect width="547" height="596" fill="white"/>
</clipPath>
<clipPath id="clip1_17106_9374">
<rect width="295" height="222.706" fill="white" transform="translate(260 327)"/>
</clipPath>
</defs>
</svg>
