<svg width="200" height="200" viewBox="0 0 200 200" fill="none" xmlns="http://www.w3.org/2000/svg">
<mask id="mask0_14_269" style="mask-type:luminance" maskUnits="userSpaceOnUse" x="0" y="0" width="200" height="200">
<path d="M100.006 0H99.994C44.7688 0 0 44.7688 0 99.994V100.006C0 155.231 44.7688 200 99.994 200H100.006C155.231 200 200 155.231 200 100.006V99.994C200 44.7688 155.231 0 100.006 0Z" fill="white"/>
</mask>
<g mask="url(#mask0_14_269)">
<path d="M100.006 0H99.994C44.7688 0 0 44.7688 0 99.994V100.006C0 155.231 44.7688 200 99.994 200H100.006C155.231 200 200 155.231 200 100.006V99.994C200 44.7688 155.231 0 100.006 0Z" fill="#2E2F80"/>
<path d="M123.085 206.682H76.9029C72.9324 206.682 69.7896 203.335 70.0295 199.376L70.7733 187.489C70.9772 184.238 73.4123 181.419 76.651 181.107C76.8789 181.083 77.1069 181.071 77.3348 181.071H122.642C122.869 181.071 123.097 181.071 123.325 181.107C126.564 181.419 128.999 184.238 129.203 187.489L129.947 199.376C130.199 203.335 127.044 206.682 123.073 206.682H123.085Z" fill="#F4A088"/>
<path d="M99.9941 183.782C135.444 183.782 164.182 155.044 164.182 119.595C164.182 84.1447 135.444 55.4069 99.9941 55.4069C64.5443 55.4069 35.8065 84.1447 35.8065 119.595C35.8065 155.044 64.5443 183.782 99.9941 183.782Z" fill="#D0EAF7"/>
<mask id="mask1_14_269" style="mask-type:luminance" maskUnits="userSpaceOnUse" x="35" y="55" width="130" height="129">
<path d="M99.9941 183.782C135.444 183.782 164.182 155.044 164.182 119.595C164.182 84.1447 135.444 55.4069 99.9941 55.4069C64.5443 55.4069 35.8065 84.1447 35.8065 119.595C35.8065 155.044 64.5443 183.782 99.9941 183.782Z" fill="white"/>
</mask>
<g mask="url(#mask1_14_269)">
<path d="M94.4044 183.782C129.854 183.782 158.592 155.044 158.592 119.595C158.592 84.1447 129.854 55.4069 94.4044 55.4069C58.9545 55.4069 30.2167 84.1447 30.2167 119.595C30.2167 155.044 58.9545 183.782 94.4044 183.782Z" fill="#95CCEF"/>
</g>
<path d="M139.087 119.355C141.174 131.842 137.408 143.478 130.103 151.994C130.091 152.006 130.067 152.03 130.055 152.042C129.599 152.582 129.119 153.11 128.627 153.614C127.68 154.597 126.756 155.593 125.916 156.685C123.973 159.216 121.958 162.478 120.41 166.521C118.119 172.459 117.747 177.713 117.759 181.071H82.2288C82.2408 177.713 81.857 172.459 79.5778 166.521C78.0424 162.526 76.0512 159.299 74.1559 156.78C73.2563 155.593 72.2126 154.513 71.193 153.422C70.7732 152.978 70.3534 152.51 69.9575 152.042C69.9215 152.03 69.9095 152.006 69.8855 151.97C63.9358 145.025 60.3372 136.028 60.3372 126.168C60.3372 105.86 75.6313 89.1022 95.3159 86.811C95.3998 86.811 95.4718 86.7871 95.5558 86.7871C116.248 84.316 135.657 98.7945 139.087 119.343V119.355Z" fill="#FDE898"/>
<path d="M130.283 126.192C130.283 136.04 126.684 145.049 120.746 151.994C120.734 152.006 120.71 152.03 120.698 152.042C119.882 152.99 119.019 153.902 118.119 154.765C115.768 157.488 113.033 161.375 111.042 166.521C108.763 172.459 108.379 177.713 108.391 181.071H82.2407C82.2527 177.713 81.8689 172.459 79.5897 166.521C77.5985 161.351 74.8516 157.464 72.5124 154.741C71.6128 153.89 70.7611 152.99 69.9694 152.054C69.9334 152.042 69.9214 152.018 69.8974 151.982C63.9477 145.037 60.3491 136.04 60.3491 126.18C60.3491 105.872 75.6433 89.1142 95.3278 86.8231C115.012 89.1142 130.294 105.872 130.294 126.18L130.283 126.192Z" fill="#FCE177"/>
<mask id="mask2_14_269" style="mask-type:luminance" maskUnits="userSpaceOnUse" x="60" y="86" width="71" height="96">
<path d="M130.283 126.192C130.283 136.04 126.684 145.049 120.746 151.994C120.734 152.006 120.71 152.03 120.698 152.042C119.882 152.99 119.019 153.902 118.119 154.765C115.768 157.488 113.033 161.375 111.042 166.521C108.763 172.459 108.379 177.713 108.391 181.071H82.2407C82.2527 177.713 81.8689 172.459 79.5897 166.521C77.5985 161.351 74.8516 157.464 72.5124 154.741C71.6128 153.89 70.7611 152.99 69.9694 152.054C69.9334 152.042 69.9214 152.018 69.8974 151.982C63.9477 145.037 60.3491 136.04 60.3491 126.18C60.3491 105.872 75.6433 89.1142 95.3278 86.8231C115.012 89.1142 130.294 105.872 130.294 126.18L130.283 126.192Z" fill="white"/>
</mask>
<g mask="url(#mask2_14_269)">
<path d="M103.581 181.071C104.036 169.352 103.305 162.994 105.056 152.654C105.968 148.228 106.004 143.897 108.235 140.011C109.374 138.068 111.75 136.628 113.597 137.288C118.371 139.543 113.225 145.469 109.974 146.692C100.75 150.795 91.7051 136.628 95.5797 128.627C97.6189 124.957 102.297 126.288 102.345 130.438C102.729 136.376 100.726 142.038 97.199 146.081C93.5044 150.819 87.6267 148.576 86.4751 143.07C85.8513 138.116 90.8295 140.695 91.993 143.897C94.0802 149.139 94.9199 154.609 94.9079 160.211C94.9679 167.013 95.1838 174.174 94.3681 180.723" stroke="#F4A088" stroke-width="2.29113" stroke-miterlimit="10"/>
<path d="M81.581 173.67C84.5918 175.002 89.0661 176.573 94.68 177.185C100.486 177.82 105.344 177.197 108.619 176.513C109.998 178.768 111.39 181.011 112.769 183.266L77.9943 181.767C79.1939 179.068 80.3814 176.369 81.581 173.67Z" fill="#EAC85D"/>
</g>
<path d="M76.0389 178.36C80.4413 180.447 88.8981 183.758 99.9938 183.758C111.09 183.758 119.558 180.447 123.949 178.36" stroke="#39A9C1" stroke-width="8.82865" stroke-miterlimit="10" stroke-linecap="round"/>
<path d="M114.017 57.1583C111.198 55.9828 106.304 54.3634 100.018 54.3514C93.7203 54.3514 88.8142 55.9828 85.9833 57.1583" stroke="#39A9C1" stroke-width="2.69897" stroke-miterlimit="10" stroke-linecap="round"/>
<path d="M67.7863 117.519C66.8866 120.65 65.4831 127.092 67.2105 134.913C68.6139 141.258 71.4809 145.793 73.3401 148.288" stroke="#FBFAFA" stroke-width="5.30199" stroke-linecap="round" stroke-linejoin="round"/>
<path d="M78.9421 155.113C79.6138 155.761 80.3935 156.613 81.1252 157.728C82.2168 159.383 82.7926 160.967 83.1045 162.118" stroke="#FBFAFA" stroke-width="5.30199" stroke-linecap="round" stroke-linejoin="round"/>
<path d="M89.5579 110.166C90.1936 115.432 94.7039 119.439 100.006 119.439C105.308 119.439 109.818 115.432 110.454 110.166" stroke="#E5B12B" stroke-width="2.12319" stroke-miterlimit="10" stroke-linecap="round"/>
<path d="M87.8222 77.0116C90.915 76.0477 92.855 73.4461 92.1552 71.2008C91.4555 68.9554 88.3809 67.9166 85.2881 68.8805C82.1952 69.8445 80.2553 72.4461 80.955 74.6914C81.6548 76.9367 84.7293 77.9755 87.8222 77.0116Z" fill="#C7E2F6"/>
<path d="M135.056 83.7505C137.8 76.9995 131.656 68.1253 121.333 63.9293C111.01 59.7334 100.418 61.8048 97.6735 68.5558C94.9294 75.3068 101.073 84.181 111.396 88.377C121.719 92.5729 132.312 90.5015 135.056 83.7505Z" fill="#C7E2F6"/>
<path d="M73.6401 109.638C81.4707 109.638 87.8187 103.29 87.8187 95.4597C87.8187 87.6291 81.4707 81.2811 73.6401 81.2811C65.8095 81.2811 59.4615 87.6291 59.4615 95.4597C59.4615 103.29 65.8095 109.638 73.6401 109.638Z" fill="#F8F9FA"/>
<path d="M126.36 109.638C134.191 109.638 140.539 103.29 140.539 95.4597C140.539 87.629 134.191 81.2811 126.36 81.2811C118.529 81.2811 112.181 87.629 112.181 95.4597C112.181 103.29 118.529 109.638 126.36 109.638Z" fill="#F8F9FA"/>
<path d="M51.9042 72.1286C60.385 67.3784 71.0969 66.1789 80.3214 69.3457C80.7892 69.5136 81.0291 70.0294 80.8612 70.4972C80.7292 70.8571 80.3934 71.073 80.0455 71.085L73.0641 71.2889C68.4699 71.4568 63.9476 71.8647 59.4013 72.5844C57.1222 72.9443 54.8551 73.3761 52.5159 73.772C51.5563 73.9519 51.0645 72.5964 51.9042 72.1166V72.1286Z" fill="#FCE177"/>
<path d="M147.484 73.784C138.511 71.9607 129.119 71.169 119.966 71.085C118.995 71.073 118.767 69.6576 119.679 69.3457C124.297 67.6663 129.311 67.3184 134.181 67.7983C139.039 68.3141 143.873 69.6456 148.108 72.1286C148.959 72.5964 148.432 73.9879 147.496 73.784H147.484Z" fill="#FCE177"/>
<path d="M98.8066 28.5851V30.8643C98.8066 31.0562 98.9026 31.2481 99.0585 31.3681L105.836 36.3462C106.172 36.5981 106.172 37.0899 105.836 37.3418L100.726 41.0964C100.402 41.3363 100.39 41.8041 100.69 42.068L106.448 46.9382C106.724 47.1781 106.736 47.5979 106.472 47.8618L99.6943 54.3514" stroke="#39A9C1" stroke-width="2.69897" stroke-miterlimit="10" stroke-linecap="round"/>
<path d="M98.5425 28.7051C101.994 28.7051 104.792 25.9071 104.792 22.4555C104.792 19.0039 101.994 16.2059 98.5425 16.2059C95.0909 16.2059 92.2928 19.0039 92.2928 22.4555C92.2928 25.9071 95.0909 28.7051 98.5425 28.7051Z" fill="#F4A088"/>
<path d="M119.822 96.9232C119.99 93.4085 122.797 90.6256 126.144 90.4576C129.731 90.2777 132.945 93.1566 133.125 96.9232" stroke="#070707" stroke-width="2.15918" stroke-miterlimit="10" stroke-linecap="round"/>
<path d="M66.9827 96.9232C67.1506 93.4085 69.9575 90.6256 73.3043 90.4576C76.8909 90.2777 80.1057 93.1566 80.2856 96.9232" stroke="#070707" stroke-width="2.15918" stroke-miterlimit="10" stroke-linecap="round"/>
</g>
</svg>
